<svg version="1.1" xmlns="http://www.w3.org/2000/svg" x="0" y="0" viewBox="0 0 841.89 651.64" style="enable-background:new 0 0 841.89 651.64" xml:space="preserve"><style>.st1{fill:#fff}</style><path d="M271.61 342.62h39.95v69.47h-49.28l-14.01 96.95h-75.22l13.49-96.95h-20.75l-14.01 96.95H76.55l13.49-96.95H50.61v-69.47h49.28l5.19-34.22H65.13v-69.47h49.28l13.49-96.95h75.74l-14.01 96.95h21.27l14.01-96.95h75.22l-14.01 96.95h39.43v69.47h-49.28l-4.66 34.22zm-96.49 0h21.27l5.19-34.22h-21.79l-4.67 34.22z" style="fill:#f1c92f"/><path class="st1" d="M343.73 277.04v42.37h-44.04V187.84h56.49c6.69 0 13.26.71 19.7 2.14 6.44 1.43 12.2 3.84 17.28 7.25 5.08 3.41 9.17 7.93 12.27 13.57 3.09 5.64 4.65 12.73 4.65 21.28 0 8.18-1.52 15.12-4.55 20.81-3.04 5.7-7.06 10.35-12.08 13.94-5.02 3.59-10.78 6.2-17.28 7.8a82.856 82.856 0 0 1-19.98 2.42h-12.46zm0-54.82v21.19h9.29c3.35 0 6.41-.84 9.2-2.51 2.79-1.67 4.18-4.49 4.18-8.46 0-2.11-.37-3.81-1.12-5.11a8.152 8.152 0 0 0-3.07-3.07c-1.3-.74-2.76-1.27-4.37-1.58-1.61-.31-3.22-.46-4.83-.46h-9.28zM376.13 23.37h38.67c6.96 0 13.28.74 18.95 2.22 5.67 1.48 10.54 3.74 14.6 6.77 4.06 3.03 7.18 6.83 9.38 11.41 2.19 4.58 3.29 9.96 3.29 16.15 0 6.19-1.13 11.57-3.38 16.15-2.26 4.58-5.41 8.38-9.47 11.41-4.06 3.03-8.96 5.32-14.7 6.86-5.74 1.55-12.09 2.32-19.05 2.32h-24.36v63.62h-13.92V23.37zm13.92 61.49h23.59c10.96 0 19.27-2.13 24.94-6.38 5.67-4.25 8.51-10.44 8.51-18.56 0-8.51-2.93-14.73-8.8-18.66-5.87-3.93-14.09-5.9-24.65-5.9h-23.59v49.5zM618.8 91.82c0 10.44-1.81 20.05-5.41 28.81-3.61 8.77-8.6 16.34-14.99 22.72-6.38 6.38-13.92 11.38-22.62 14.99-8.7 3.61-18.15 5.41-28.33 5.41s-19.63-1.81-28.33-5.41c-8.7-3.61-16.24-8.61-22.62-14.99-6.38-6.38-11.38-13.95-14.99-22.72-3.61-8.76-5.41-18.37-5.41-28.81 0-10.44 1.8-20.04 5.41-28.81 3.61-8.76 8.6-16.34 14.99-22.72 6.38-6.38 13.92-11.38 22.62-14.99 8.7-3.61 18.14-5.41 28.33-5.41 10.18 0 19.63 1.81 28.33 5.41 8.7 3.61 16.24 8.6 22.62 14.99 6.38 6.38 11.38 13.96 14.99 22.72 3.61 8.77 5.41 18.37 5.41 28.81zm-14.69.1c0-7.98-1.29-15.57-3.87-22.78-2.58-7.21-6.32-13.54-11.22-19.01-4.9-5.47-10.86-9.81-17.89-13.03-7.03-3.22-14.92-4.83-23.69-4.83-8.77 0-16.66 1.61-23.69 4.83-7.03 3.22-12.99 7.56-17.89 13.03s-8.64 11.81-11.21 19.01c-2.58 7.21-3.87 14.8-3.87 22.78s1.29 15.58 3.87 22.78c2.58 7.21 6.31 13.51 11.21 18.92 4.9 5.41 10.86 9.72 17.89 12.93 7.02 3.22 14.92 4.83 23.69 4.83 8.77 0 16.66-1.61 23.69-4.83 7.02-3.22 12.99-7.53 17.89-12.93 4.9-5.41 8.64-11.71 11.22-18.92 2.58-7.2 3.87-14.8 3.87-22.78zM656.89 160.28h-13.92V23.37h40.22c6.7 0 12.92.65 18.66 1.93 5.73 1.29 10.7 3.38 14.89 6.28 4.19 2.9 7.44 6.67 9.76 11.31s3.48 10.31 3.48 17.02c0 5.03-.9 9.6-2.71 13.73-1.81 4.13-4.25 7.7-7.35 10.73-3.09 3.03-6.77 5.45-11.02 7.25-4.25 1.81-8.89 2.97-13.92 3.48l40.03 65.16H718l-37.9-64h-23.2v64.02zm0-76h24.17c11.21 0 19.85-2.03 25.91-6.09 6.06-4.06 9.09-10.15 9.09-18.27 0-4.51-.84-8.31-2.51-11.41-1.68-3.09-4-5.61-6.96-7.54-2.97-1.93-6.57-3.35-10.83-4.25-4.25-.9-8.96-1.35-14.12-1.35h-24.75v48.91zM422.15 187.84h90.5v36.8h-48.88v11.34h45.9v34.38h-45.9v12.26h52.03v36.8h-93.66V187.84zM529.56 187.84h56.68c6.44 0 12.85.65 19.23 1.95 6.38 1.3 12.08 3.59 17.1 6.88 5.02 3.28 9.07 7.68 12.17 13.19 3.09 5.51 4.65 12.42 4.65 20.72 0 8.05-1.98 15.15-5.93 21.28-3.95 6.13-9.64 10.87-17.05 14.22l33.39 53.33h-50.81l-25.2-47.02h-1.3v47.02h-42.93V187.84zm42.56 55.56h8.67c1.48 0 3.1-.12 4.89-.37 1.78-.25 3.44-.77 4.98-1.58 1.54-.8 2.83-1.92 3.87-3.35 1.04-1.42 1.57-3.31 1.57-5.67 0-2.35-.43-4.21-1.29-5.58-.86-1.36-1.97-2.38-3.32-3.07-1.35-.68-2.83-1.12-4.43-1.3-1.6-.19-3.07-.28-4.43-.28h-10.51v21.2z"/><g><path class="st1" d="M361.66 344.59h44.04l37.54 66.72h.74l-1.86-66.72h42v131.57h-45.16l-36.42-62.81h-.74l1.86 62.81h-42V344.59zM540.62 344.59h47.02l51.29 131.57H590.8l-6.88-19.33H542.1l-6.5 19.33h-46.83l51.85-131.57zm22.86 45.9-10.78 32.52h21.37l-10.59-32.52zM682.78 401.83l2.04 74.33h-41.26V344.59h57.86l23.82 70.8h.93l20.65-70.8h59.72v131.57h-43.11l1.3-73.96-1.12-.19-24.53 74.15h-31.22l-24.16-74.33h-.92z"/></g><g><path class="st1" d="M370.35 568.24c3.09.74 6.13 1.95 9.11 3.62 2.97 1.67 5.64 3.78 7.99 6.32 2.35 2.54 4.21 5.48 5.57 8.83 1.36 3.35 2.04 7.06 2.04 11.15 0 7.19-1.46 13.23-4.37 18.12-2.91 4.9-6.75 8.86-11.52 11.89-4.77 3.04-10.22 5.2-16.35 6.51-6.13 1.3-12.42 1.95-18.86 1.95h-59.65V505.06h54.08c5.33 0 10.99.4 17 1.21 6.01.81 11.55 2.42 16.63 4.83 5.08 2.42 9.29 5.95 12.64 10.59 3.35 4.65 5.02 10.75 5.02 18.3 0 7.06-1.77 12.89-5.3 17.47-3.53 4.59-8.21 7.99-14.03 10.22v.56zm-44.79-28.8v16.17h11.89c3.09 0 5.64-.71 7.62-2.14 1.98-1.42 2.97-3.62 2.97-6.6 0-2.48-1.05-4.33-3.16-5.57-2.11-1.24-4.9-1.86-8.36-1.86h-10.96zm0 44.6v17.84h13.19c3.47 0 6.29-.77 8.46-2.32 2.17-1.55 3.25-3.81 3.25-6.78 0-1.73-.46-3.16-1.39-4.27-.93-1.12-2.08-2.01-3.44-2.69-1.36-.68-2.82-1.14-4.37-1.39-1.55-.25-3.01-.37-4.37-.37h-11.33zM467.54 640.35c-10.29 0-19.23-1.43-26.85-4.27-7.62-2.85-13.97-6.75-19.05-11.71-5.08-4.95-8.86-10.81-11.34-17.56-2.48-6.75-3.72-14.03-3.72-21.84v-79.91h44.23v75.08c0 6.32 1.52 11.24 4.55 14.77 3.03 3.53 7.34 5.3 12.92 5.3s9.88-1.77 12.92-5.3c3.03-3.53 4.55-8.46 4.55-14.77v-75.08h44.04v79.91c0 7.81-1.33 15.08-4 21.84-2.67 6.75-6.6 12.61-11.8 17.56-5.2 4.96-11.68 8.86-19.42 11.71-7.73 2.84-16.75 4.27-27.03 4.27zM541.87 570.84c0-10.53 1.86-20.07 5.58-28.62 3.72-8.55 8.8-15.86 15.24-21.93 6.44-6.07 14.03-10.75 22.77-14.03 8.73-3.28 18.05-4.93 27.97-4.93 10.16 0 19.76 1.64 28.8 4.93 9.04 3.28 16.6 7.71 22.67 13.29l-27.13 32.71c-2.48-3.22-5.57-5.67-9.29-7.34-3.72-1.67-7.87-2.51-12.45-2.51-3.72 0-7.19.65-10.41 1.95a24.52 24.52 0 0 0-8.46 5.67c-2.42 2.48-4.31 5.48-5.67 9.01-1.36 3.53-2.04 7.47-2.04 11.8 0 4.34.71 8.21 2.14 11.61 1.42 3.41 3.35 6.35 5.76 8.83 2.42 2.48 5.23 4.37 8.46 5.67 3.22 1.3 6.63 1.95 10.22 1.95 5.08 0 9.45-1.05 13.1-3.16 3.65-2.1 6.53-4.58 8.64-7.43l27.13 32.52c-5.95 5.95-13.26 10.69-21.93 14.22-8.67 3.53-18.52 5.3-29.55 5.3-9.91 0-19.23-1.67-27.97-5.02-8.73-3.35-16.32-8.08-22.77-14.22-6.44-6.13-11.52-13.44-15.24-21.93-3.71-8.48-5.57-17.93-5.57-28.34z"/><path class="st1" d="M664.34 570.1c0-10.53 1.86-20.04 5.58-28.53 3.72-8.48 8.83-15.7 15.33-21.65 6.5-5.95 14.22-10.53 23.14-13.75 8.92-3.22 18.58-4.83 28.99-4.83s20.07 1.61 28.99 4.83c8.92 3.22 16.66 7.81 23.23 13.75 6.56 5.95 11.71 13.17 15.42 21.65 3.72 8.49 5.57 18 5.57 28.53 0 10.53-1.86 20.13-5.57 28.8-3.72 8.67-8.86 16.07-15.42 22.21-6.57 6.13-14.31 10.87-23.23 14.22-8.92 3.35-18.58 5.02-28.99 5.02s-20.07-1.67-28.99-5.02c-8.92-3.35-16.63-8.08-23.14-14.22-6.5-6.13-11.61-13.53-15.33-22.21-3.72-8.67-5.58-18.27-5.58-28.8zm47.02 0c0 4.34.65 8.3 1.95 11.89 1.3 3.59 3.1 6.69 5.39 9.29 2.29 2.6 5.05 4.62 8.27 6.04 3.22 1.43 6.69 2.14 10.41 2.14 3.72 0 7.15-.71 10.31-2.14 3.16-1.42 5.91-3.44 8.27-6.04 2.35-2.6 4.18-5.7 5.48-9.29 1.3-3.59 1.95-7.56 1.95-11.89 0-4.21-.65-8.08-1.95-11.61-1.3-3.53-3.13-6.51-5.48-8.92-2.35-2.42-5.11-4.3-8.27-5.67-3.16-1.36-6.6-2.04-10.31-2.04-3.72 0-7.19.68-10.41 2.04-3.22 1.36-5.98 3.25-8.27 5.67-2.29 2.42-4.09 5.39-5.39 8.92-1.3 3.53-1.95 7.4-1.95 11.61z"/></g></svg>