<?xml version="1.0" encoding="utf-8"?>
<!-- Generator: Adobe Illustrator 24.2.1, SVG Export Plug-In . SVG Version: 6.00 Build 0)  -->
<svg version="1.1" id="Layer_1" xmlns="http://www.w3.org/2000/svg" xmlns:xlink="http://www.w3.org/1999/xlink" x="0px" y="0px"
	 viewBox="0 0 170.44 209.9" style="enable-background:new 0 0 170.44 209.9;" xml:space="preserve">
<style type="text/css">
	.st0{fill:#00B1EB;}
	.st1{fill:#FFCC00;}
	.st2{clip-path:url(#SVGID_2_);fill:#FFFFFF;}
	.st3{clip-path:url(#SVGID_2_);fill:#00B1EB;}
	.st4{clip-path:url(#SVGID_2_);fill:#FFCC00;}
</style>
<path class="st0" d="M62.62,42.3v27.49H45.69L62.62,42.3z M58.61,0L0,95.34h62.62v25.99h25.55V95.34h19.65V69.79H88.17V0H58.61z"/>
<path class="st1" d="M125.23,42.3v27.49h-16.92L125.23,42.3z M121.23,0L62.62,95.34h62.62v25.99h25.55V95.34h19.65V69.79h-19.65V0
	H121.23z"/>
<g>
	<defs>
		<rect id="SVGID_1_" width="170.44" height="209.9"/>
	</defs>
	<clipPath id="SVGID_2_">
		<use xlink:href="#SVGID_1_"  style="overflow:visible;"/>
	</clipPath>
	<path class="st2" d="M28.36,189.33L28.36,189.33c2.84-1.72,4.71-4.72,4.71-8.04c0-5.5-4.82-9.53-11.42-9.53H4.83v37.24h17.16
		c6.87,0,12.08-4.57,12.08-10.6C34.07,194.33,31.87,190.99,28.36,189.33 M15.09,179.74h4.77c2.15,0,3.47,1.31,3.47,3.24
		c0,1.93-1.32,3.24-3.47,3.24h-4.77V179.74z M20.25,200.57h-5.17v-6.77h5.17c2.22,0,3.67,1.39,3.67,3.37
		C23.92,199.18,22.47,200.57,20.25,200.57"/>
	<path class="st2" d="M78.65,171.76l-13.14,33.44l-5.32-9.74c3.68-2.2,5.91-5.95,5.91-10.52c0-7.78-5.82-13.18-13.85-13.18H36.12
		v37.24h10.26V197.6h3.72l6.04,11.39h7.88h3.57h7.43l2.06-6.05h13.2l2.05,6.05h11.3l-14.95-37.24H78.65z M51.07,188.96h-4.69v-8.09
		h4.69c2.87,0,4.52,1.7,4.52,4.03C55.59,187.23,53.93,188.96,51.07,188.96 M79.58,194.92l4.08-11.54l4.12,11.54H79.58z"/>
	<path class="st2" d="M118.99,185.8c-3.5-0.88-6.31-1.58-6.31-3.7c0-1.74,1.76-2.53,3.59-2.53c2.12,0,3.88,1.11,3.88,3.46h10.29
		c0-7.58-5.12-12.16-14.05-12.16c-8.78,0-14.17,4.2-14.17,11.53c0,8.48,6.87,10.13,12.25,11.46c3.54,0.86,6.44,1.54,6.44,3.87
		c0,2.03-2.05,3.18-4.2,3.18c-2.34,0-4.39-1.29-4.39-3.96h-10.58c0,8.12,5.89,12.93,15,12.93c8.65,0,14.9-4.22,14.9-12.35
		C131.64,189.05,124.47,187.21,118.99,185.8"/>
	<rect x="133.72" y="171.76" class="st2" width="10.39" height="37.24"/>
	<polygon class="st2" points="157.18,199.6 157.18,171.76 146.79,171.76 146.79,208.99 170.43,208.99 170.43,199.6 	"/>
	<path class="st2" d="M21.09,170c9.49,0,16.25-6.19,16.25-15.35v-22.83H26.86v22.64c0,3.64-2.35,5.99-5.77,5.99
		s-5.77-2.35-5.77-5.99v-22.64H4.83v22.83C4.83,163.82,11.59,170,21.09,170"/>
	<polygon class="st2" points="49.96,148.85 64.75,169.06 73.23,169.06 73.23,131.82 63.3,131.82 63.3,151.36 49,131.82 
		40.02,131.82 40.02,169.06 49.96,169.06 	"/>
	<rect x="75.91" y="131.82" class="st2" width="10.4" height="37.24"/>
	<polygon class="st2" points="106.81,144.4 115.84,169.06 126.61,169.06 111.98,131.82 111.41,131.82 102.2,131.82 101.63,131.82 
		87.01,169.06 97.78,169.06 	"/>
	<rect x="97.8" y="121.33" class="st2" width="18.01" height="7.86"/>
	<path class="st3" d="M161.36,150.44c0-10.8-8.76-19.56-19.56-19.56c-10.8,0-19.56,8.76-19.56,19.56c0,10.8,8.76,19.56,19.56,19.56
		C152.6,170,161.36,161.24,161.36,150.44"/>
	<path class="st2" d="M137.04,139.98c0.05,0.04,0.09,0.1,0.09,0.17l0.07,1.28c0.01,0.18,0.21,0.27,0.35,0.16l1.02-0.77
		c0.05-0.04,0.12-0.06,0.19-0.04l1.24,0.33c0.17,0.05,0.32-0.12,0.26-0.28l-0.42-1.21c-0.02-0.06-0.01-0.13,0.02-0.19l0.69-1.07
		c0.1-0.15-0.01-0.34-0.19-0.34l-1.28,0.02c-0.07,0-0.13-0.03-0.17-0.08l-0.81-0.99c-0.11-0.14-0.33-0.09-0.38,0.08l-0.37,1.22
		c-0.02,0.07-0.07,0.12-0.13,0.14l-1.19,0.46c-0.16,0.06-0.19,0.28-0.05,0.39L137.04,139.98z"/>
	<path class="st2" d="M141.5,160.24l-1.73,0.03c-0.09,0-0.18-0.04-0.24-0.11l-1.09-1.34c-0.15-0.18-0.44-0.13-0.51,0.1l-0.5,1.65
		c-0.03,0.09-0.09,0.16-0.18,0.19l-1.61,0.62c-0.22,0.09-0.26,0.38-0.06,0.52l1.42,0.99c0.07,0.05,0.12,0.14,0.13,0.23l0.1,1.72
		c0.01,0.24,0.29,0.36,0.47,0.22l1.38-1.04c0.07-0.06,0.17-0.07,0.26-0.05l1.67,0.44c0.23,0.06,0.43-0.16,0.36-0.38l-0.57-1.63
		c-0.03-0.09-0.02-0.18,0.03-0.26l0.94-1.45C141.88,160.49,141.73,160.23,141.5,160.24"/>
	<path class="st2" d="M154.74,155.04c0.07-0.1-0.01-0.24-0.13-0.24l-0.9,0.02c-0.05,0-0.09-0.02-0.12-0.06l-0.57-0.7
		c-0.08-0.1-0.23-0.07-0.27,0.05l-0.26,0.86c-0.01,0.05-0.05,0.08-0.09,0.1l-0.84,0.32c-0.11,0.04-0.13,0.2-0.03,0.27l0.74,0.51
		c0.04,0.03,0.06,0.07,0.07,0.12l0.05,0.9c0.01,0.12,0.15,0.19,0.25,0.11l0.71-0.54c0.04-0.03,0.09-0.04,0.13-0.03l0.87,0.23
		c0.12,0.03,0.22-0.08,0.18-0.2l-0.29-0.85c-0.02-0.04-0.01-0.09,0.02-0.13L154.74,155.04z"/>
	<path class="st4" d="M163.77,131.82c-13.2,10.02-28.43,16.45-44.31,19.05c-0.08,0.01-0.16,0.03-0.24,0.04
		c-10.83,1.75-21.96,1.71-32.92-0.18v11.22c12.17,1.89,24.48,1.72,36.45-0.41c0.28-0.05,0.56-0.1,0.84-0.15
		c16.76-3.12,32.82-10.11,46.81-20.72C168.19,137.71,165.98,134.77,163.77,131.82"/>
</g>
</svg>
