<svg version="1.1" xmlns="http://www.w3.org/2000/svg" xmlns:xlink="http://www.w3.org/1999/xlink" x="0" y="0" viewBox="0 0 170.44 209.9" style="enable-background:new 0 0 170.44 209.9" xml:space="preserve"><style>.st2{clip-path:url(#SVGID_2_);fill:#fff}</style><path d="M62.62 42.3v27.49H45.69L62.62 42.3zM58.61 0 0 95.34h62.62v25.99h25.55V95.34h19.65V69.79H88.17V0H58.61z" style="fill:#00b1eb"/><path d="M125.23 42.3v27.49h-16.92l16.92-27.49zm-4-42.3L62.62 95.34h62.62v25.99h25.55V95.34h19.65V69.79h-19.65V0h-29.56z" style="fill:#fc0"/><defs><path id="SVGID_1_" d="M0 0h170.44v209.9H0z"/></defs><clipPath id="SVGID_2_"><use xlink:href="#SVGID_1_" style="overflow:visible"/></clipPath><path class="st2" d="M28.36 189.33c2.84-1.72 4.71-4.72 4.71-8.04 0-5.5-4.82-9.53-11.42-9.53H4.83V209h17.16c6.87 0 12.08-4.57 12.08-10.6 0-4.07-2.2-7.41-5.71-9.07m-13.27-9.59h4.77c2.15 0 3.47 1.31 3.47 3.24 0 1.93-1.32 3.24-3.47 3.24h-4.77v-6.48zm5.16 20.83h-5.17v-6.77h5.17c2.22 0 3.67 1.39 3.67 3.37 0 2.01-1.45 3.4-3.67 3.4M78.65 171.76 65.51 205.2l-5.32-9.74c3.68-2.2 5.91-5.95 5.91-10.52 0-7.78-5.82-13.18-13.85-13.18H36.12V209h10.26v-11.4h3.72l6.04 11.39h18.88l2.06-6.05h13.2l2.05 6.05h11.3l-14.95-37.24H78.65zm-27.58 17.2h-4.69v-8.09h4.69c2.87 0 4.52 1.7 4.52 4.03s-1.66 4.06-4.52 4.06m28.51 5.96 4.08-11.54 4.12 11.54h-8.2zM118.99 185.8c-3.5-.88-6.31-1.58-6.31-3.7 0-1.74 1.76-2.53 3.59-2.53 2.12 0 3.88 1.11 3.88 3.46h10.29c0-7.58-5.12-12.16-14.05-12.16-8.78 0-14.17 4.2-14.17 11.53 0 8.48 6.87 10.13 12.25 11.46 3.54.86 6.44 1.54 6.44 3.87 0 2.03-2.05 3.18-4.2 3.18-2.34 0-4.39-1.29-4.39-3.96h-10.58c0 8.12 5.89 12.93 15 12.93 8.65 0 14.9-4.22 14.9-12.35 0-8.48-7.17-10.32-12.65-11.73M133.72 171.76h10.39V209h-10.39zM157.18 199.6v-27.84h-10.39v37.23h23.64v-9.39zM21.09 170c9.49 0 16.25-6.19 16.25-15.35v-22.83H26.86v22.64c0 3.64-2.35 5.99-5.77 5.99s-5.77-2.35-5.77-5.99v-22.64H4.83v22.83c0 9.17 6.76 15.35 16.26 15.35M49.96 148.85l14.79 20.21h8.48v-37.24H63.3v19.54L49 131.82h-8.98v37.24h9.94zM75.91 131.82h10.4v37.24h-10.4zM106.81 144.4l9.03 24.66h10.77l-14.63-37.24H101.63l-14.62 37.24h10.77zM97.8 121.33h18.01v7.86H97.8z"/><path d="M161.36 150.44c0-10.8-8.76-19.56-19.56-19.56-10.8 0-19.56 8.76-19.56 19.56 0 10.8 8.76 19.56 19.56 19.56 10.8 0 19.56-8.76 19.56-19.56" style="clip-path:url(#SVGID_2_);fill:#00b1eb"/><path class="st2" d="M137.04 139.98c.05.04.09.1.09.17l.07 1.28c.01.18.21.27.35.16l1.02-.77c.05-.04.12-.06.19-.04l1.24.33c.17.05.32-.12.26-.28l-.42-1.21a.254.254 0 0 1 .02-.19l.69-1.07c.1-.15-.01-.34-.19-.34l-1.28.02c-.07 0-.13-.03-.17-.08l-.81-.99c-.11-.14-.33-.09-.38.08l-.37 1.22c-.02.07-.07.12-.13.14l-1.19.46c-.16.06-.19.28-.05.39l1.06.72zM141.5 160.24l-1.73.03a.32.32 0 0 1-.24-.11l-1.09-1.34a.294.294 0 0 0-.51.1l-.5 1.65c-.03.09-.09.16-.18.19l-1.61.62c-.22.09-.26.38-.06.52l1.42.99c.07.05.12.14.13.23l.1 1.72c.01.24.29.36.47.22l1.38-1.04c.07-.06.17-.07.26-.05l1.67.44a.3.3 0 0 0 .36-.38l-.57-1.63a.298.298 0 0 1 .03-.26l.94-1.45c.11-.2-.04-.46-.27-.45M154.74 155.04c.07-.1-.01-.24-.13-.24l-.9.02c-.05 0-.09-.02-.12-.06l-.57-.7a.154.154 0 0 0-.27.05l-.26.86c-.01.05-.05.08-.09.1l-.84.32c-.11.04-.13.2-.03.27l.74.51c.04.03.06.07.07.12l.05.9c.01.12.15.19.25.11l.71-.54c.04-.03.09-.04.13-.03l.87.23c.12.03.22-.08.18-.2l-.29-.85c-.02-.04-.01-.09.02-.13l.48-.74z"/><path d="M163.77 131.82a99.935 99.935 0 0 1-44.31 19.05c-.08.01-.16.03-.24.04a99.947 99.947 0 0 1-32.92-.18v11.22c12.17 1.89 24.48 1.72 36.45-.41l.84-.15a111.084 111.084 0 0 0 46.81-20.72c-2.21-2.96-4.42-5.9-6.63-8.85" style="clip-path:url(#SVGID_2_);fill:#fc0"/></svg>